<?xml version="1.0"?>
<svg xmlns="http://www.w3.org/2000/svg" xmlns:xlink="http://www.w3.org/1999/xlink" xmlns:svgjs="http://svgjs.com/svgjs" version="1.1" width="512" height="512" x="0" y="0" viewBox="0 0 33.004 33.003" style="enable-background:new 0 0 512 512" xml:space="preserve" class=""><rect width="33.004" height="33.003" rx="20" ry="20" fill="#8db9ff" shape="rounded"/><g transform="matrix(0.68,0,0,0.68,5.2806199645996035,5.280420532226559)"><link type="text/css" rel="stylesheet" id="dark-mode-general-link"/><link type="text/css" rel="stylesheet" id="dark-mode-custom-link"/><style type="text/css" id="dark-mode-custom-style"/>
<g xmlns="http://www.w3.org/2000/svg">
	<path d="M4.393,4.788c-5.857,5.857-5.858,15.354,0,21.213c4.875,4.875,12.271,5.688,17.994,2.447l10.617,4.161l-4.857-9.998   c3.133-5.697,2.289-12.996-2.539-17.824C19.748-1.072,10.25-1.07,4.393,4.788z M25.317,22.149l0.261,0.512l1.092,2.142l0.006,0.01   l1.717,3.536l-3.748-1.47l-0.037-0.015l-2.352-0.883l-0.582-0.219c-4.773,3.076-11.221,2.526-15.394-1.646   C1.469,19.305,1.469,11.481,6.277,6.672c4.81-4.809,12.634-4.809,17.443,0.001C27.919,10.872,28.451,17.368,25.317,22.149z" fill="#000a99" data-original="#000000" style="" class=""/>
	<g>
		<path d="M24.228,13.042c0,0.714-0.578,1.292-1.292,1.292H6.52c-0.713,0-1.292-0.578-1.292-1.292v-0.416    c0-0.714,0.579-1.292,1.292-1.292h16.416c0.714,0,1.292,0.578,1.292,1.292V13.042z" fill="#000a99" data-original="#000000" style="" class=""/>
		<path d="M18.228,18.042c0,0.714-0.396,1.292-0.884,1.292H6.112c-0.488,0-0.884-0.578-0.884-1.292v-0.416    c0-0.714,0.396-1.292,0.884-1.292h11.232c0.488,0,0.884,0.578,0.884,1.292V18.042z" fill="#000a99" data-original="#000000" style="" class=""/>
	</g>
</g>
<g xmlns="http://www.w3.org/2000/svg">
</g>
<g xmlns="http://www.w3.org/2000/svg">
</g>
<g xmlns="http://www.w3.org/2000/svg">
</g>
<g xmlns="http://www.w3.org/2000/svg">
</g>
<g xmlns="http://www.w3.org/2000/svg">
</g>
<g xmlns="http://www.w3.org/2000/svg">
</g>
<g xmlns="http://www.w3.org/2000/svg">
</g>
<g xmlns="http://www.w3.org/2000/svg">
</g>
<g xmlns="http://www.w3.org/2000/svg">
</g>
<g xmlns="http://www.w3.org/2000/svg">
</g>
<g xmlns="http://www.w3.org/2000/svg">
</g>
<g xmlns="http://www.w3.org/2000/svg">
</g>
<g xmlns="http://www.w3.org/2000/svg">
</g>
<g xmlns="http://www.w3.org/2000/svg">
</g>
<g xmlns="http://www.w3.org/2000/svg">
</g>
</g></svg>
